<svg width="46" height="47" viewBox="0 0 46 47" fill="none" xmlns="http://www.w3.org/2000/svg">
<path fill-rule="evenodd" clip-rule="evenodd" d="M12 2.25C6.47784 2.25 2 6.72784 2 12.25V34.2598C2 39.777 6.47295 44.25 11.9902 44.25H34.0098C39.5272 44.25 44 39.7769 44 34.2622V12.2402C44 6.72295 39.527 2.25 34.0098 2.25H12ZM12 0.25C5.37327 0.25 0 5.62327 0 12.25V34.2598C0 40.8816 5.36838 46.25 11.9902 46.25H34.0098C40.6315 46.25 46 40.8818 46 34.2622V12.2402C46 5.61838 40.6316 0.25 34.0098 0.25H12Z" fill="#00285E"/>
<path fill-rule="evenodd" clip-rule="evenodd" d="M16.3386 21.5731C16.3386 21.0208 16.7863 20.5731 17.3386 20.5731H28.6588C29.2111 20.5731 29.6588 21.0208 29.6588 21.5731C29.6588 22.1254 29.2111 22.5731 28.6588 22.5731H17.3386C16.7863 22.5731 16.3386 22.1254 16.3386 21.5731Z" fill="#00285E"/>
<path fill-rule="evenodd" clip-rule="evenodd" d="M20.1154 17.706C20.1154 14.0811 23.0564 11.14 26.6814 11.14H28.6614C29.2136 11.14 29.6614 11.5877 29.6614 12.14C29.6614 12.6923 29.2136 13.14 28.6614 13.14H26.6814C24.161 13.14 22.1154 15.1856 22.1154 17.706V34.36C22.1154 34.9123 21.6676 35.36 21.1154 35.36C20.5631 35.36 20.1154 34.9123 20.1154 34.36V17.706Z" fill="#00285E"/>
</svg>
