<svg width="24" height="25" viewBox="0 0 24 25" fill="none" xmlns="http://www.w3.org/2000/svg">
<path d="M9.26992 6.79004H14.7299C16.2339 6.79004 17.4539 8.00904 17.4539 9.51504V14.975C17.4539 16.479 16.2349 17.699 14.7289 17.699H9.26992C7.76492 17.699 6.54492 16.48 6.54492 14.974V9.51504C6.54492 8.01004 7.76492 6.79004 9.26992 6.79004V6.79004Z" stroke="#00285E" stroke-width="1.5" stroke-linecap="round" stroke-linejoin="round"/>
<path d="M13.4142 10.8311C14.1952 11.6121 14.1952 12.8781 13.4142 13.6591C12.6332 14.4401 11.3672 14.4401 10.5862 13.6591C9.80524 12.8781 9.80524 11.6121 10.5862 10.8311C11.3672 10.0501 12.6332 10.0501 13.4142 10.8311Z" stroke="#00285E" stroke-width="1.5" stroke-linecap="round" stroke-linejoin="round"/>
<path d="M15.1465 8.39157C14.9512 8.58685 14.9512 8.90339 15.1465 9.09866C15.3417 9.29394 15.6583 9.29394 15.8535 9.09866C16.0488 8.90339 16.0488 8.58685 15.8535 8.39157C15.6583 8.1963 15.3417 8.1963 15.1465 8.39157Z" stroke="#00285E" stroke-width="0.5" stroke-linecap="round" stroke-linejoin="round"/>
<path d="M7.5 3.24512H16.504C18.987 3.24512 21 5.25812 21 7.74112V16.7501C21 19.2321 18.987 21.2451 16.504 21.2451H7.496C5.013 21.2451 3 19.2321 3 16.7491V7.74512C3 5.26012 5.015 3.24512 7.5 3.24512V3.24512Z" stroke="#00285E" stroke-width="1.5" stroke-linecap="round" stroke-linejoin="round"/>
</svg>
