<svg width="47" height="47" viewBox="0 0 47 47" fill="none" xmlns="http://www.w3.org/2000/svg">
<path fill-rule="evenodd" clip-rule="evenodd" d="M16.4407 10.9156C13.314 10.9156 10.7795 13.4501 10.7795 16.5767V29.9209C10.7795 33.0497 13.3138 35.582 16.4407 35.582H29.7849C32.9139 35.582 35.446 33.0475 35.446 29.9233V16.5767C35.446 13.4476 32.9115 10.9156 29.7873 10.9156H16.4407ZM16.4407 8.91556C12.2095 8.91556 8.77954 12.3455 8.77954 16.5767V29.9209C8.77954 34.1548 12.2097 37.582 16.4407 37.582H29.7849C34.0185 37.582 37.446 34.1521 37.446 29.9233V16.5767C37.446 12.3431 34.0161 8.91556 29.7873 8.91556H16.4407Z" fill="#00285E"/>
<path d="M31.7492 16.476C31.7492 17.3031 31.0831 17.9737 30.2614 17.9737C29.4397 17.9737 28.7736 17.3031 28.7736 16.476C28.7736 15.6489 29.4397 14.9784 30.2614 14.9784C31.0831 14.9784 31.7492 15.6489 31.7492 16.476Z" fill="#00285E"/>
<path fill-rule="evenodd" clip-rule="evenodd" d="M25.8632 20.5006C24.3446 18.9821 21.8831 18.9821 20.3645 20.5006C18.8459 22.0192 18.8459 24.4807 20.3645 25.9993C21.8831 27.5179 24.3446 27.5179 25.8632 25.9993C27.3818 24.4807 27.3818 22.0192 25.8632 20.5006ZM18.9503 19.0864C21.2499 16.7868 24.9778 16.7868 27.2774 19.0864C29.577 21.3861 29.577 25.1139 27.2774 27.4135C24.9778 29.7132 21.2499 29.7132 18.9503 27.4135C16.6507 25.1139 16.6507 21.3861 18.9503 19.0864Z" fill="#00285E"/>
<path fill-rule="evenodd" clip-rule="evenodd" d="M12.1139 2.25C6.59173 2.25 2.11389 6.72784 2.11389 12.25V34.2598C2.11389 39.777 6.58684 44.25 12.1041 44.25H34.1237C39.6411 44.25 44.1139 39.7769 44.1139 34.2622V12.2402C44.1139 6.72295 39.6409 2.25 34.1237 2.25H12.1139ZM12.1139 0.25C5.48716 0.25 0.113892 5.62327 0.113892 12.25V34.2598C0.113892 40.8816 5.48227 46.25 12.1041 46.25H34.1237C40.7454 46.25 46.1139 40.8818 46.1139 34.2622V12.2402C46.1139 5.61838 40.7455 0.25 34.1237 0.25H12.1139Z" fill="#00285E"/>
</svg>
