<svg width="30" height="30" viewBox="0 0 30 30" fill="none" xmlns="http://www.w3.org/2000/svg">
<path d="M23.9262 18.999V11.001C23.9262 10.286 23.5452 9.62601 22.9262 9.26901L16.0002 5.27001C15.3812 4.91301 14.6192 4.91301 14.0002 5.27001L7.07422 9.26901C6.45522 9.62601 6.07422 10.287 6.07422 11.001V18.998C6.07422 19.713 6.45522 20.373 7.07422 20.73L14.0002 24.73C14.6192 25.087 15.3812 25.087 16.0002 24.73L22.9262 20.731C23.5452 20.374 23.9262 19.713 23.9262 18.999Z" stroke="#00285E" stroke-width="2" stroke-linecap="round"/>
<path d="M9.17041 15.63L12.1704 17.37" stroke="#00285E" stroke-width="2" stroke-linecap="round"/>
<path d="M6.34229 10.001L15.0003 15L23.6583 10.001" stroke="#00285E" stroke-width="2" stroke-linecap="round"/>
<path d="M15 25V15" stroke="#00285E" stroke-width="2" stroke-linecap="round"/>
<path d="M19.3291 12.5L10.5371 7.26898" stroke="#00285E" stroke-width="2" stroke-linecap="round"/>
</svg>
