<svg width="18" height="22" viewBox="0 0 18 22" fill="none" xmlns="http://www.w3.org/2000/svg">
<path fill-rule="evenodd" clip-rule="evenodd" d="M16.0422 22H1.95764C0.876861 22 0 21.0875 0 19.9628V9.37143C0 8.24676 0.876861 7.33429 1.95764 7.33429H2.33488V6.93508H2.34763C2.3489 3.10493 5.33378 0 9.0147 0C12.6967 0 15.6498 3.10609 15.6498 6.9378C15.6498 7.07838 15.6549 7.20836 15.6549 7.33569H16.0411C17.1219 7.33569 17.9987 8.24815 17.9987 9.37282L18 19.9629C18 21.0889 17.1244 22 16.0424 22L16.0422 22ZM9.02865 2.44551C6.65041 2.44551 4.72216 4.45216 4.72086 6.92687H4.71321V7.33535L13.3174 7.33402V7.30219C13.3288 7.18415 13.3365 7.06214 13.3365 6.92817C13.3365 4.45204 11.4081 2.44546 9.0287 2.44546L9.02865 2.44551ZM15.6624 10.6032C15.6624 10.1536 15.312 9.78891 14.8799 9.78891H3.12394C2.69189 9.78891 2.34141 10.1536 2.34141 10.6032V18.745C2.34141 19.1946 2.69189 19.5593 3.12394 19.5593H14.8799C15.312 19.5593 15.6624 19.1946 15.6624 18.745V10.6032ZM9.19178 17.1034H8.80052C8.26141 17.1034 7.82551 16.6485 7.82551 16.0888V13.2731C7.82551 12.7121 8.26265 12.2585 8.80052 12.2585H9.19178C9.73089 12.2585 10.1668 12.7134 10.1668 13.2731V16.0888C10.1668 16.6498 9.72965 17.1034 9.19178 17.1034Z" fill="#98C5E9"/>
</svg>
