<?xml version="1.0" encoding="utf-8"?>
<!-- Generator: Adobe Illustrator 25.2.3, SVG Export Plug-In . SVG Version: 6.00 Build 0)  -->
<svg version="1.1" id="Layer_1" xmlns="http://www.w3.org/2000/svg" xmlns:xlink="http://www.w3.org/1999/xlink" x="0px" y="0px"
	 width="25" height="25" viewBox="0 0 25 25" style="enable-background:new 0 0 25 25;" xml:space="preserve">
<style type="text/css">
	.st0{fill:none;stroke:#3BD6FF;stroke-width:1.5;stroke-linecap:round;stroke-linejoin:round;}
	.st1{fill:#3BD6FF;}
</style>
<path class="st0" d="M2.33,2.28h6.15c0.95,0,1.7,0.83,1.59,1.78L8.73,16.09c-0.09,0.81-0.78,1.43-1.59,1.43H2.33"/>
<path class="st1" d="M18.45,20.5c-0.27,1.28-1.53,2.32-2.81,2.32s-2.12-1.04-1.88-2.32s1.5-2.32,2.81-2.32
	C17.88,18.18,18.72,19.22,18.45,20.5z"/>
<path class="st0" d="M22.13,13.3l-2.94-5.4c-0.18-0.33-0.53-0.54-0.91-0.54h-4.69c-0.53,0-0.98,0.4-1.03,0.93l-0.8,8.09
	c-0.06,0.61,0.42,1.14,1.03,1.14h0.32c0.32,0,0.62-0.12,0.88-0.3c0.87-0.61,1.9-0.98,2.96-0.98c1.22,0,2.21,0.49,2.84,1.27h1.17
	c0.53,0,0.98-0.4,1.03-0.93l0.27-2.69C22.27,13.69,22.23,13.48,22.13,13.3z"/>
<line class="st0" x1="5.5" y1="7.5" x2="2.5" y2="7.5"/>
<line class="st0" x1="4.5" y1="12.5" x2="2.5" y2="12.5"/>
</svg>
