<svg width="24" height="25" viewBox="0 0 24 25" fill="none" xmlns="http://www.w3.org/2000/svg">
<path fill-rule="evenodd" clip-rule="evenodd" d="M3.76123 7.98633C3.76123 5.91554 5.44044 4.23633 7.51123 4.23633H16.5152C18.584 4.23633 20.2612 5.91354 20.2612 7.98233V16.9913C20.2612 19.059 18.5841 20.7363 16.5152 20.7363H7.50723C5.43845 20.7363 3.76123 19.0591 3.76123 16.9903V7.98633ZM7.51123 2.73633C4.61201 2.73633 2.26123 5.08711 2.26123 7.98633V16.9903C2.26123 19.8875 4.61002 22.2363 7.50723 22.2363H16.5152C19.4123 22.2363 21.7612 19.8876 21.7612 16.9913V7.98233C21.7612 5.08511 19.4124 2.73633 16.5152 2.73633H7.51123ZM16.4745 6.33334C16.313 6.33334 16.1594 6.40309 16.0531 6.52467L12.7633 10.2878L9.99829 6.62962C9.85725 6.44302 9.63687 6.33334 9.40295 6.33334H6.95485C6.33678 6.33334 5.9866 7.04166 6.36189 7.53275L10.6178 13.1019L6.16628 18.1934C5.99048 18.3944 6.13327 18.709 6.40038 18.709H7.56061C7.72206 18.709 7.87564 18.6393 7.98193 18.5177L11.5983 14.3826L14.681 18.4159C14.8222 18.6006 15.0414 18.709 15.2739 18.709H17.6273C18.2436 18.709 18.5943 18.0043 18.2227 17.5127L13.7349 11.5755L17.8675 6.84895C18.0433 6.64789 17.9005 6.33334 17.6334 6.33334H16.4745ZM15.607 17.4524C15.5295 17.4524 15.4565 17.4162 15.4094 17.3547L7.97162 7.6239C7.94034 7.58298 7.96953 7.52394 8.02103 7.52394H9.01889C9.09686 7.52394 9.17032 7.5605 9.21735 7.62271L16.5712 17.3527C16.6022 17.3936 16.5729 17.4524 16.5216 17.4524H15.607Z" fill="#00285E"/>
</svg>
