<svg width="46" height="47" viewBox="0 0 46 47" fill="none" xmlns="http://www.w3.org/2000/svg">
<g clip-path="url(#clip0_30_278)">
<path fill-rule="evenodd" clip-rule="evenodd" d="M2 12.25C2 6.72784 6.47784 2.25 12 2.25H34.0098C39.527 2.25 44 6.72295 44 12.2402V34.2622C44 39.7769 39.5272 44.25 34.0098 44.25H11.9902C6.47295 44.25 2 39.777 2 34.2598V12.25ZM0 12.25C0 5.62327 5.37327 0.25 12 0.25H34.0098C40.6316 0.25 46 5.61838 46 12.2402V34.2622C46 40.8818 40.6315 46.25 34.0098 46.25H11.9902C5.36838 46.25 0 40.8816 0 34.2598V12.25ZM35.7044 9.41496L25.2686 21.2988L35.9018 36.4516C36.3669 37.1143 35.8928 38.026 35.0833 38.026H28.8923C28.5664 38.026 28.2609 37.8671 28.0737 37.6003L20.4632 26.7521L10.7713 37.7879C10.6384 37.9392 10.4468 38.026 10.2454 38.026H8.55238C8.33736 38.026 8.22265 37.7725 8.36456 37.611L19.3223 25.1374L9.10459 10.5744C8.63965 9.91167 9.11369 9 9.9232 9H16.1145C16.4404 9 16.7458 9.15875 16.933 9.42544L24.1277 19.6744L33.2974 9.23797C33.4303 9.08671 33.6219 9 33.8233 9H35.5165C35.7315 9 35.8462 9.25341 35.7044 9.41496ZM15.416 10.8854H11.4808L29.5713 36.2276H33.5065L15.416 10.8854Z" fill="#00285E"/>
</g>
<defs>
<clipPath id="clip0_30_278">
<rect width="46" height="47" fill="white"/>
</clipPath>
</defs>
</svg>
