<svg width="46" height="47" viewBox="0 0 46 47" fill="none" xmlns="http://www.w3.org/2000/svg">
<path fill-rule="evenodd" clip-rule="evenodd" d="M17.616 15.0506C17.9254 14.872 18.3066 14.872 18.616 15.0507L31.3173 22.384C31.6267 22.5626 31.8173 22.8927 31.8173 23.25C31.8173 23.6073 31.6267 23.9374 31.3173 24.116L18.616 31.4494C18.3066 31.628 17.9254 31.628 17.616 31.4494C17.3066 31.2707 17.116 30.9406 17.116 30.5833V15.9167C17.116 15.5594 17.3066 15.2293 17.616 15.0506ZM19.116 17.6487V28.8513L28.8173 23.25L19.116 17.6487Z" fill="#00285E"/>
<path fill-rule="evenodd" clip-rule="evenodd" d="M12 2.25C6.47784 2.25 2 6.72784 2 12.25V34.2598C2 39.777 6.47295 44.25 11.9902 44.25H34.0098C39.5272 44.25 44 39.7769 44 34.2622V12.2402C44 6.72295 39.527 2.25 34.0098 2.25H12ZM12 0.25C5.37327 0.25 0 5.62327 0 12.25V34.2598C0 40.8816 5.36838 46.25 11.9902 46.25H34.0098C40.6315 46.25 46 40.8818 46 34.2622V12.2402C46 5.61838 40.6316 0.25 34.0098 0.25H12Z" fill="#00285E"/>
</svg>
